<?xml version="1.0" encoding="utf-8"?>
<!-- Generator: Adobe Illustrator 18.0.0, SVG Export Plug-In . SVG Version: 6.00 Build 0)  -->
<!DOCTYPE svg PUBLIC "-//W3C//DTD SVG 1.1//EN" "http://www.w3.org/Graphics/SVG/1.1/DTD/svg11.dtd">
<svg version="1.1" id="レイヤー_1" xmlns="http://www.w3.org/2000/svg" xmlns:xlink="http://www.w3.org/1999/xlink" x="0px"
	 y="0px" viewBox="0 0 157.2 106" enable-background="new 0 0 157.2 106" xml:space="preserve">
<g>
	<path d="M2.6,99.7v0.4c0.1,2.3,0.2,2.7,1.2,3.1c0.8,0.3,3.1,0.5,7.3,0.5c2.6,0,5.3-0.2,6.4-0.4c1.3-0.3,1.9-1.3,1.9-3
		s-0.4-2.5-1.4-2.8c-1-0.4-1-0.4-10.9-0.4C2,97.1,0,95.6,0,91.5c0-1.8,0.5-3.1,1.5-3.9c1-0.8,2-1.1,4.1-1.4c1.5-0.2,4.3-0.3,6.3-0.3
		c4.5,0,6.7,0.4,8.1,1.5c1.1,0.9,1.5,1.9,1.5,4.5h-2.7v-0.3c0-1.5-0.1-2-0.6-2.3c-1-0.8-2.8-1.1-6.5-1.1c-5.1,0-7.5,0.4-8.4,1.3
		c-0.4,0.4-0.6,1.2-0.6,2.2c0,1.8,0.4,2.4,1.6,2.8c1,0.3,2.5,0.4,5.2,0.5c1.3,0,1.3,0,6.5,0c2.8,0,4.2,0.5,5.2,1.8
		c0.6,0.8,0.9,2,0.9,3.5c0,2.5-0.7,4-2.2,4.8c-1.5,0.8-4.4,1.1-10.6,1.1c-4.4,0-6.1-0.2-7.4-0.9c-1.5-0.8-1.9-1.9-1.9-4.5
		c0-0.1,0-0.5,0-0.9H2.6z"/>
	<path d="M47.2,85.9v2.3h-10v17.7h-2.7V88.3h-10v-2.3H47.2z"/>
	<path d="M73.2,87.5c0.8,0.8,1.2,1.7,1.4,3.8c0.1,1.1,0.2,3.1,0.2,4.8c0,2.3-0.2,4.5-0.4,5.9c-0.4,2-1.4,3.2-3.3,3.6
		c-1.6,0.3-3.7,0.5-7.3,0.5c-3,0-7.4-0.1-8.6-0.2c-2-0.2-3-0.6-3.9-1.5c-1.2-1.2-1.5-3-1.5-8.4s0.5-7.5,2-8.6c1-0.8,2-1,4.5-1.2
		c1.3-0.1,4.7-0.2,6.6-0.2C69.7,85.9,71.9,86.2,73.2,87.5z M53.5,89.2c-0.8,0.7-1,2.6-1,6.4c0,4.4,0.2,6.2,0.8,6.9
		c0.5,0.6,1.3,0.8,3.4,0.9c1.1,0.1,4.5,0.2,5.9,0.2c2.9,0,5.7-0.1,7-0.4c1.2-0.2,1.8-0.8,2.1-2c0.2-1.1,0.3-3.2,0.3-5.1
		c0-2.2-0.1-4.6-0.3-5.5c-0.2-1.1-0.9-1.7-2.2-1.9c-1.5-0.2-3.1-0.3-8.2-0.3C56.4,88.3,54.3,88.5,53.5,89.2z"/>
	<path d="M78.7,85.9h12.5c5,0.1,5.1,0.1,6.4,0.2c1.6,0.2,2.8,1,3.5,2.2c0.5,0.9,0.6,1.9,0.6,3.6c0,3.7-0.7,4.7-3.3,5.3
		c1,0.2,1.5,0.5,2,1c0.8,0.8,0.9,1.4,0.9,4.8v2.9h-2.7V104c0-2.6,0-2.6-0.1-3.4c-0.2-1.3-0.9-2-2.1-2.2c-0.9-0.1-0.9-0.1-5.2-0.2
		h-9.8v7.7h-2.7V85.9z M91.2,95.9c4.3,0,5,0,5.8-0.3c1.5-0.4,2-1.3,2-3.7c0-1.4-0.4-2.5-1-2.9c-0.8-0.6-2-0.7-6.8-0.7h-9.8v7.6H91.2
		z"/>
	<path d="M108.3,85.9v20h-2.7v-20H108.3z"/>
	<path d="M112.5,85.9h19.6v2.3h-16.9v6.1h16.2v2.3h-16.2v6.9h16.9v2.3h-19.6V85.9z"/>
	<path d="M137.6,99.7v0.4c0.1,2.3,0.2,2.7,1.2,3.1c0.8,0.3,3.1,0.5,7.3,0.5c2.6,0,5.3-0.2,6.4-0.4c1.3-0.3,1.9-1.3,1.9-3
		s-0.4-2.5-1.3-2.8c-1-0.4-1-0.4-10.9-0.4c-5.3,0-7.2-1.5-7.2-5.6c0-1.8,0.5-3.1,1.5-3.9c1-0.8,2-1.1,4.1-1.4
		c1.5-0.2,4.3-0.3,6.3-0.3c4.5,0,6.7,0.4,8.1,1.5c1.1,0.9,1.5,1.9,1.5,4.5h-2.7v-0.3c0-1.5-0.2-2-0.6-2.3c-1-0.8-2.8-1.1-6.5-1.1
		c-5.1,0-7.5,0.4-8.4,1.3c-0.4,0.4-0.6,1.2-0.6,2.2c0,1.8,0.4,2.4,1.6,2.8c1,0.3,2.5,0.4,5.2,0.5c1.3,0,1.3,0,6.5,0
		c2.8,0,4.2,0.5,5.2,1.8c0.6,0.8,0.9,2,0.9,3.5c0,2.5-0.7,4-2.2,4.8c-1.5,0.8-4.4,1.1-10.6,1.1c-4.4,0-6.2-0.2-7.4-0.9
		c-1.5-0.8-2-1.9-2-4.5c0-0.1,0-0.5,0-0.9H137.6z"/>
</g>
<g>
	<path d="M44.5,0.3V67h-8.7V8.6h-3.1L11.2,28.8l-5.3-6L29.6,0.3H44.5z"/>
	<path d="M141.3,67H67.6c-0.1-2.5-0.2-5-0.2-7.2c0-12.6,1.9-17.6,8.1-20.9c2.5-1.3,6.7-2.3,11.9-2.9c1.9-0.2,7.8-0.6,17.8-1.2
		c15.3-0.8,19.2-1.3,22.2-2.7c3.6-1.6,5.2-4.7,5.2-10.4c0-6.2-1.5-9.8-4.7-11.4c-3-1.6-11.3-2.4-23.5-2.4c-8.6,0-18.6,0.7-21.7,1.6
		c-3.7,1-5.5,3-6,7c-0.2,1.5-0.3,3.2-0.3,9.3h-8.5c0-11.6,0.6-15,3.3-18.5c2.7-3.7,6.4-5.5,12.3-6.4C87.7,0.4,94.2,0,100.6,0
		c9.4,0,23.4,0.8,27.6,1.5c5.1,0.9,9.3,4,11,8.2c1,2.3,1.6,6.4,1.6,11c0,8.1-1.3,12.1-5,15.4c-5.2,4.5-10.3,5.3-44.6,7.1
		c-12.7,0.8-15,2.9-15,13.9v2.3h65.1V67z"/>
</g>
</svg>
