<?xml version="1.0" encoding="utf-8"?>
<!-- Generator: Adobe Illustrator 18.0.0, SVG Export Plug-In . SVG Version: 6.00 Build 0)  -->
<!DOCTYPE svg PUBLIC "-//W3C//DTD SVG 1.1//EN" "http://www.w3.org/Graphics/SVG/1.1/DTD/svg11.dtd">
<svg version="1.1" id="レイヤー_1" xmlns="http://www.w3.org/2000/svg" xmlns:xlink="http://www.w3.org/1999/xlink" x="0px"
	 y="0px" viewBox="0 0 117.3 115.7" enable-background="new 0 0 117.3 115.7" xml:space="preserve">
<path fill-rule="evenodd" clip-rule="evenodd" fill="#FFFFFF" d="M102.3,49.1h-9.9c0.7,2.8,1.1,5.7,1.1,8.7
	C93.6,77,78,92.6,58.8,92.6C39.6,92.6,24,77,24,57.8c0-3,0.4-5.9,1.1-8.7h-9.9V97c0,2.4,2,4.3,4.4,4.3H98c2.4,0,4.4-1.9,4.4-4.3
	V49.1z M102.3,18.6c0-2.4-2-4.4-4.4-4.4H84.9c-2.4,0-4.4,2-4.4,4.4v13.1c0,2.4,1.9,4.4,4.4,4.4H98c2.4,0,4.4-2,4.4-4.4V18.6z
	 M58.8,36C46.8,36,37,45.8,37,57.8c0,12,9.7,21.8,21.8,21.8s21.8-9.7,21.8-21.8C80.6,45.8,70.8,36,58.8,36 M102.3,114.4H15.3
	c-7.2,0-13.1-5.8-13.1-13.1V14.3C2.2,7,8,1.2,15.3,1.2h87.1c7.2,0,13.1,5.8,13.1,13.1v87.1C115.4,108.5,109.5,114.4,102.3,114.4"/>
</svg>
